#!Matlab matrix to amc conversion
:FULLY-SPECIFIED
:DEGREES
181
root -2.008126 1.125203 71.214613 5.119624 0.322902 1.952616
lowerback -5.626526 -1.952121 -3.693458
upperback -1.407424 -2.439910 1.567653
thorax 1.896110 -1.228819 3.525294
lowerneck -22.621487 -1.299292 -10.268299
upperneck 30.444385 -0.919481 8.845397
head 14.307783 -0.339138 5.241886
rclavicle 0.000000 -0.000000
rhumerus -39.376315 19.354481 -92.173676
rradius 33.023772
rwrist -17.755528
rhand -28.856200 -18.800500
rfingers 7.125020
rthumb -2.212790 -48.768800
lclavicle 0.000000 -0.000000
lhumerus -24.733763 -11.357374 92.015853
lradius 21.671273
lwrist -0.263618
lhand -19.668800 -28.799300
lfingers 7.125020
lthumb 6.659510 1.076010
rfemur -31.689981 -7.687687 21.457144
rtibia 62.101513
rfoot -10.204056 -9.065267
rtoes -20.766800
lfemur -9.314366 1.620630 -27.733368
ltibia 20.348356
lfoot -15.768149 1.366029
ltoes -22.051700
182
root -2.025513 1.085091 71.577790 5.156950 1.390026 2.279709
lowerback -5.578223 -2.373727 -4.268879
upperback -1.420000 -2.980259 1.621577
thorax 1.926991 -1.499335 3.866631
lowerneck -22.573118 -1.301672 -10.322978
upperneck 30.460923 -0.934511 8.942588
head 14.313696 -0.341626 5.289129
rclavicle 0.000000 -0.000000
rhumerus -41.513080 19.624656 -92.520626
rradius 33.678373
rwrist -18.479311
rhand -28.856200 -18.800500
rfingers 7.125020
rthumb -2.212790 -48.768800
lclavicle 0.000000 -0.000000
lhumerus -22.463395 -15.363595 92.412160
lradius 23.882888
lwrist 2.629675
lhand -19.668800 -28.799300
lfingers 7.125020
lthumb 6.659510 1.076010
rfemur -33.166053 -7.762737 21.353496
rtibia 58.045702
rfoot -11.252707 -7.684198
rtoes -20.766800
lfemur -7.725147 1.430092 -27.976488
ltibia 20.115650
lfoot -16.981492 0.764567
ltoes -22.051700
183
root -2.046121 1.044409 71.942932 5.269993 2.450855 2.655562
lowerback -5.504288 -2.740623 -4.884323
upperback -1.445189 -3.443624 1.631123
thorax 1.931259 -1.731706 4.188198
lowerneck -22.476360 -1.374368 -10.452805
upperneck 30.245818 -1.060560 9.169847
head 14.229740 -0.379495 5.370141
rclavicle 0.000000 -0.000000
rhumerus -43.554389 19.675137 -92.742112
rradius 34.340782
rwrist -19.086427
rhand -28.856200 -18.800500
rfingers 7.125020
rthumb -2.212790 -48.768800
lclavicle 0.000000 -0.000000
lhumerus -20.237744 -18.663538 92.138134
lradius 26.031462
lwrist 4.724395
lhand -19.668800 -28.799300
lfingers 7.125020
lthumb 6.659510 1.076010
rfemur -34.376052 -7.392638 20.924036
rtibia 53.380359
rfoot -12.148367 -6.772487
rtoes -20.766800
lfemur -5.819795 1.392634 -28.211635
ltibia 18.984937
lfoot -17.650215 0.143564
ltoes -22.051700
184
root -2.068340 1.005629 72.311983 5.454224 3.407794 3.102491
lowerback -5.521464 -3.092182 -5.554476
upperback -1.478722 -3.877350 1.605323
thorax 1.981014 -1.950803 4.500419
lowerneck -22.390320 -1.430088 -10.573242
upperneck 30.022068 -1.167791 9.406379
head 14.140686 -0.405987 5.456203
rclavicle 0.000000 -0.000000
rhumerus -45.551055 19.653859 -92.974327
rradius 34.996275
rwrist -19.698966
rhand -28.856200 -18.800500
rfingers 7.125020
rthumb -2.212790 -48.768800
lclavicle 0.000000 -0.000000
lhumerus -17.940145 -21.600522 91.412827
lradius 28.129593
lwrist 6.396156
lhand -19.668800 -28.799300
lfingers 7.125020
lthumb 6.659510 1.076010
rfemur -35.500096 -6.487267 20.062362
rtibia 48.070338
rfoot -13.116322 -6.250884
rtoes -20.766800
lfemur -3.589104 1.386847 -28.511530
ltibia 17.109214
lfoot -17.974717 -0.428640
ltoes -22.051700
185
root -2.092143 0.970165 72.686434 5.720480 4.268040 3.636640
lowerback -5.686921 -3.446746 -6.299717
upperback -1.521384 -4.300856 1.542962
thorax 2.110258 -2.167181 4.809101
lowerneck -22.309220 -1.452345 -10.676989
upperneck 29.826461 -1.231311 9.633680
head 14.057375 -0.412737 5.544804
rclavicle 0.000000 -0.000000
rhumerus -47.582010 19.599834 -93.273752
rradius 35.609200
rwrist -20.347088
rhand -28.856200 -18.800500
rfingers 7.125020
rthumb -2.212790 -48.768800
lclavicle 0.000000 -0.000000
lhumerus -15.466033 -24.216138 90.299032
lradius 30.181302
lwrist 7.782831
lhand -19.668800 -28.799300
lfingers 7.125020
lthumb 6.659510 1.076010
rfemur -36.663586 -4.971563 18.667677
rtibia 42.122030
rfoot -14.432372 -6.113346
rtoes -20.766800
lfemur -0.993145 1.395966 -28.903842
ltibia 14.510410
lfoot -18.017484 -0.933688
ltoes -22.051700
